<svg width="1200" height="630" viewBox="0 0 1200 630" fill="none" xmlns="http://www.w3.org/2000/svg">
  <defs>
    <linearGradient id="bg" x1="0" y1="0" x2="1200" y2="630" gradientUnits="userSpaceOnUse">
      <stop offset="0%" stop-color="#09090B"/>
      <stop offset="100%" stop-color="#131316"/>
    </linearGradient>
    <radialGradient id="glow" cx="24%" cy="50%" r="55%">
      <stop offset="0%" stop-color="#D4A843" stop-opacity="0.10"/>
      <stop offset="100%" stop-color="#D4A843" stop-opacity="0"/>
    </radialGradient>
  </defs>

  <!-- Base -->
  <rect width="1200" height="630" fill="url(#bg)"/>
  <ellipse cx="288" cy="315" rx="500" ry="400" fill="url(#glow)"/>

  <!-- Subtle dot grid, bottom-right corner texture -->
  <g fill="#D4A843" opacity="0.06">
    <circle cx="960" cy="500" r="2"/>
    <circle cx="1000" cy="500" r="2"/>
    <circle cx="1040" cy="500" r="2"/>
    <circle cx="1080" cy="500" r="2"/>
    <circle cx="1120" cy="500" r="2"/>
    <circle cx="960" cy="540" r="2"/>
    <circle cx="1000" cy="540" r="2"/>
    <circle cx="1040" cy="540" r="2"/>
    <circle cx="1080" cy="540" r="2"/>
    <circle cx="1120" cy="540" r="2"/>
    <circle cx="960" cy="580" r="2"/>
    <circle cx="1000" cy="580" r="2"/>
    <circle cx="1040" cy="580" r="2"/>
    <circle cx="1080" cy="580" r="2"/>
    <circle cx="1120" cy="580" r="2"/>
  </g>

  <!-- Icon: inverted mark (gold container, dark shield + bolt), scaled to 220x220 at (100, 205) -->
  <g transform="translate(100, 205)">
    <g transform="scale(4.583)">
      <rect x="1.5" y="1.5" width="45" height="45" rx="11" fill="#D4A843" stroke="#D4A843" stroke-width="1.5"/>
      <path d="M24 7L11 13.5V24C11 28.5 13 32.5 16 35.5C18.5 38 21.2 39.8 24 41C26.8 39.8 29.5 38 32 35.5C35 32.5 37 28.5 37 24V13.5L24 7Z" fill="none" stroke="#09090B" stroke-width="2" stroke-linejoin="round"/>
      <path d="M27 13L17.5 25H22.5L20 36L32 23H26L27 13Z" fill="#09090B" stroke-linejoin="bevel"/>
    </g>
  </g>

  <!-- Wordmark - two lines, Anybody 900 -->
  <text x="400" y="275" font-family="Anybody, sans-serif" font-weight="900" font-size="88" fill="#FAFAFA" letter-spacing="-2.6">Trovarcis</text>
  <text x="400" y="370" font-family="Anybody, sans-serif" font-weight="900" font-size="88" fill="#D4A843" letter-spacing="-2.6">Reach</text>

  <!-- Tagline - DM Sans 500 -->
  <text x="400" y="428" font-family="DM Sans, sans-serif" font-weight="500" font-size="26" fill="#A1A1AA" letter-spacing="-0.4">Email deliverability and number verification tools.</text>

  <!-- URL - JetBrains Mono 600 -->
  <text x="400" y="500" font-family="JetBrains Mono, monospace" font-weight="600" font-size="18" fill="#52525B" letter-spacing="1.8">TROVARCI.SH</text>
</svg>
